<svg width="40" height="40" viewBox="0 0 40 40" fill="none" xmlns="http://www.w3.org/2000/svg">
<rect width="38.6667" height="40" transform="translate(0.733334)" fill="white"/>
<path d="M32.9556 3.33334H13.6222C11.85 3.33334 10.4 4.83334 10.4 6.66668V26.6667C10.4 28.5 11.85 30 13.6222 30H32.9556C34.7278 30 36.1778 28.5 36.1778 26.6667V6.66668C36.1778 4.83334 34.7278 3.33334 32.9556 3.33334ZM28.1222 11.6667H24.9V20.6167C24.9 22.7333 23.45 24.6833 21.42 24.95C18.6972 25.3333 16.4094 22.8667 16.9089 20.0333C17.2311 18.2 18.81 16.7833 20.6144 16.6667C21.6294 16.6 22.5478 16.9333 23.2889 17.5167V10C23.2889 9.08334 24.0139 8.33334 24.9 8.33334H28.1222C29.0083 8.33334 29.7333 9.08334 29.7333 10C29.7333 10.9167 29.0083 11.6667 28.1222 11.6667ZM5.56667 10C4.68056 10 3.95555 10.75 3.95555 11.6667V33.3333C3.95555 35.1667 5.40556 36.6667 7.17778 36.6667H28.1222C29.0083 36.6667 29.7333 35.9167 29.7333 35C29.7333 34.0833 29.0083 33.3333 28.1222 33.3333H8.78889C7.90278 33.3333 7.17778 32.5833 7.17778 31.6667V11.6667C7.17778 10.75 6.45278 10 5.56667 10Z" fill="#FF0000" fill-opacity="0.54"/>
</svg>
