<svg width="146" height="32" viewBox="0 0 146 32" fill="none" xmlns="http://www.w3.org/2000/svg">
<path d="M39.2537 9.45455H43.0463L47.052 19.2273H47.2224L51.2281 9.45455H55.0207V24H52.0377V14.5327H51.917L48.1528 23.929H46.1216L42.3574 14.4972H42.2366V24H39.2537V9.45455ZM66.2388 9.45455H69.3141V18.9006C69.3141 19.9612 69.0608 20.8892 68.5542 21.6847C68.0523 22.4801 67.3491 23.1004 66.4448 23.5455C65.5404 23.9858 64.4869 24.206 63.2843 24.206C62.0769 24.206 61.021 23.9858 60.1167 23.5455C59.2123 23.1004 58.5092 22.4801 58.0073 21.6847C57.5054 20.8892 57.2544 19.9612 57.2544 18.9006V9.45455H60.3297V18.6378C60.3297 19.1918 60.4505 19.6842 60.6919 20.1151C60.9382 20.5459 61.2838 20.8845 61.7289 21.1307C62.1739 21.3769 62.6924 21.5 63.2843 21.5C63.8809 21.5 64.3993 21.3769 64.8397 21.1307C65.2847 20.8845 65.628 20.5459 65.8695 20.1151C66.1157 19.6842 66.2388 19.1918 66.2388 18.6378V9.45455ZM79.4349 13.6378C79.3781 13.0649 79.1342 12.6198 78.7034 12.3026C78.2725 11.9853 77.6877 11.8267 76.9491 11.8267C76.4472 11.8267 76.0235 11.8977 75.6778 12.0398C75.3322 12.1771 75.067 12.3688 74.8824 12.6151C74.7024 12.8613 74.6125 13.1406 74.6125 13.4531C74.603 13.7135 74.6574 13.9408 74.7758 14.1349C74.8989 14.3291 75.067 14.4972 75.2801 14.6392C75.4931 14.7765 75.7394 14.8973 76.0187 15.0014C76.2981 15.1009 76.5964 15.1861 76.9136 15.2571L78.2204 15.5696C78.8549 15.7116 79.4373 15.901 79.9676 16.1378C80.4979 16.3745 80.9572 16.6657 81.3454 17.0114C81.7337 17.357 82.0343 17.7642 82.2474 18.233C82.4652 18.7017 82.5765 19.2391 82.5812 19.8452C82.5765 20.7353 82.3492 21.5071 81.8994 22.1605C81.4543 22.8092 80.8104 23.3134 79.9676 23.6733C79.1295 24.0284 78.1186 24.206 76.9349 24.206C75.7607 24.206 74.7379 24.026 73.8667 23.6662C73.0002 23.3063 72.3232 22.7737 71.8355 22.0682C71.3525 21.358 71.0992 20.4796 71.0755 19.4332H74.0514C74.0845 19.9209 74.2242 20.3281 74.4704 20.6548C74.7214 20.9768 75.0552 21.2206 75.4718 21.3864C75.8932 21.5473 76.3691 21.6278 76.8994 21.6278C77.4202 21.6278 77.8724 21.5521 78.2559 21.4006C78.6442 21.2491 78.9449 21.0384 79.1579 20.7685C79.371 20.4986 79.4775 20.1884 79.4775 19.8381C79.4775 19.5114 79.3805 19.2367 79.1863 19.0142C78.9969 18.7917 78.7176 18.6023 78.3483 18.446C77.9837 18.2898 77.5362 18.1477 77.0059 18.0199L75.4221 17.6222C74.1958 17.3239 73.2275 16.8575 72.5173 16.223C71.8071 15.5885 71.4543 14.7339 71.4591 13.6591C71.4543 12.7784 71.6887 12.009 72.1622 11.3509C72.6404 10.6927 73.2962 10.179 74.1295 9.80966C74.9628 9.44034 75.9098 9.25568 76.9704 9.25568C78.05 9.25568 78.9922 9.44034 79.7971 9.80966C80.6068 10.179 81.2365 10.6927 81.6863 11.3509C82.1361 12.009 82.3681 12.7713 82.3824 13.6378H79.4349ZM87.425 9.45455V24H84.3497V9.45455H87.425ZM102.489 14.5469H99.3782C99.3214 14.1444 99.2054 13.7869 99.0302 13.4744C98.855 13.1572 98.6301 12.8873 98.3555 12.6648C98.0809 12.4422 97.7636 12.2718 97.4038 12.1534C97.0487 12.035 96.6628 11.9759 96.2461 11.9759C95.4933 11.9759 94.8375 12.1629 94.2788 12.5369C93.7201 12.9062 93.2868 13.446 92.9791 14.1562C92.6713 14.8617 92.5174 15.7187 92.5174 16.7273C92.5174 17.7642 92.6713 18.6354 92.9791 19.3409C93.2916 20.0464 93.7272 20.5791 94.2859 20.9389C94.8446 21.2988 95.4909 21.4787 96.2248 21.4787C96.6368 21.4787 97.0179 21.4242 97.3683 21.3153C97.7234 21.2064 98.0383 21.0478 98.3129 20.8395C98.5875 20.6264 98.8148 20.3684 98.9947 20.0653C99.1794 19.7623 99.3072 19.4167 99.3782 19.0284L102.489 19.0426C102.409 19.7102 102.207 20.3542 101.885 20.9744C101.568 21.59 101.14 22.1416 100.6 22.6293C100.065 23.1122 99.4256 23.4957 98.6822 23.7798C97.9436 24.0592 97.1079 24.1989 96.1751 24.1989C94.8778 24.1989 93.7177 23.9053 92.695 23.3182C91.677 22.7311 90.8721 21.8812 90.2802 20.7685C89.6931 19.6558 89.3995 18.3087 89.3995 16.7273C89.3995 15.1411 89.6978 13.7917 90.2944 12.679C90.891 11.5663 91.7007 10.7187 92.7234 10.1364C93.7461 9.54924 94.8967 9.25568 96.1751 9.25568C97.0179 9.25568 97.7992 9.37405 98.5189 9.6108C99.2433 9.84754 99.8849 10.1932 100.444 10.6477C101.002 11.0975 101.457 11.6491 101.807 12.3026C102.162 12.956 102.39 13.7041 102.489 14.5469ZM104.394 24V9.45455H110.218C111.288 9.45455 112.181 9.61316 112.896 9.9304C113.611 10.2476 114.148 10.688 114.508 11.2514C114.868 11.8101 115.048 12.4541 115.048 13.1832C115.048 13.7514 114.934 14.2509 114.707 14.6818C114.48 15.108 114.167 15.4583 113.769 15.733C113.376 16.0028 112.926 16.1946 112.42 16.3082V16.4503C112.974 16.474 113.492 16.6302 113.975 16.919C114.463 17.2079 114.858 17.6127 115.161 18.1335C115.464 18.6496 115.616 19.2652 115.616 19.9801C115.616 20.7519 115.424 21.4408 115.041 22.0469C114.662 22.6482 114.101 23.1241 113.357 23.4744C112.614 23.8248 111.698 24 110.609 24H104.394ZM107.47 21.4858H109.977C110.834 21.4858 111.459 21.3224 111.852 20.9957C112.245 20.6643 112.441 20.224 112.441 19.6747C112.441 19.2723 112.344 18.9171 112.15 18.6094C111.956 18.3016 111.679 18.0601 111.319 17.8849C110.964 17.7098 110.54 17.6222 110.048 17.6222H107.47V21.4858ZM107.47 15.5412H109.749C110.171 15.5412 110.545 15.4678 110.872 15.321C111.203 15.1695 111.463 14.9564 111.653 14.6818C111.847 14.4072 111.944 14.0781 111.944 13.6946C111.944 13.169 111.757 12.7453 111.383 12.4233C111.014 12.1013 110.488 11.9403 109.806 11.9403H107.47V15.5412ZM130.683 16.7273C130.683 18.3134 130.383 19.6629 129.781 20.7756C129.185 21.8883 128.37 22.7382 127.338 23.3253C126.311 23.9077 125.155 24.1989 123.872 24.1989C122.58 24.1989 121.42 23.9053 120.392 23.3182C119.365 22.7311 118.553 21.8812 117.956 20.7685C117.36 19.6558 117.061 18.3087 117.061 16.7273C117.061 15.1411 117.36 13.7917 117.956 12.679C118.553 11.5663 119.365 10.7187 120.392 10.1364C121.42 9.54924 122.58 9.25568 123.872 9.25568C125.155 9.25568 126.311 9.54924 127.338 10.1364C128.37 10.7187 129.185 11.5663 129.781 12.679C130.383 13.7917 130.683 15.1411 130.683 16.7273ZM127.566 16.7273C127.566 15.6998 127.412 14.8333 127.104 14.1278C126.801 13.4223 126.372 12.8873 125.818 12.5227C125.264 12.1581 124.616 11.9759 123.872 11.9759C123.129 11.9759 122.48 12.1581 121.926 12.5227C121.372 12.8873 120.941 13.4223 120.634 14.1278C120.331 14.8333 120.179 15.6998 120.179 16.7273C120.179 17.7547 120.331 18.6212 120.634 19.3267C120.941 20.0322 121.372 20.5672 121.926 20.9318C122.48 21.2964 123.129 21.4787 123.872 21.4787C124.616 21.4787 125.264 21.2964 125.818 20.9318C126.372 20.5672 126.801 20.0322 127.104 19.3267C127.412 18.6212 127.566 17.7547 127.566 16.7273ZM134.861 9.45455L137.795 14.4119H137.908L140.856 9.45455H144.329L139.89 16.7273L144.428 24H140.891L137.908 19.0355H137.795L134.812 24H131.289L135.842 16.7273L131.374 9.45455H134.861Z" fill="black"/>
<g clip-path="url(#clip0_5_62)">
<path opacity="0.3" d="M10.6667 21.3333H26.6667V5.33334H10.6667V21.3333ZM16.6667 13.3333C17.4267 13.3333 18.1067 13.5867 18.6667 14.0133V6.66668H24V9.33334H20V16.6667C20 18.5067 18.5067 20 16.6667 20C14.8267 20 13.3333 18.5067 13.3333 16.6667C13.3333 14.8267 14.8267 13.3333 16.6667 13.3333Z" fill="#4979D1"/>
<path d="M26.6667 2.66666H10.6667C9.20001 2.66666 8.00001 3.86666 8.00001 5.33332V21.3333C8.00001 22.8 9.20001 24 10.6667 24H26.6667C28.1333 24 29.3333 22.8 29.3333 21.3333V5.33332C29.3333 3.86666 28.1333 2.66666 26.6667 2.66666ZM26.6667 21.3333H10.6667V5.33332H26.6667V21.3333ZM16.6667 20C18.5067 20 20 18.5067 20 16.6667V9.33332H24V6.66666H18.6667V14.0133C18.1067 13.5867 17.4267 13.3333 16.6667 13.3333C14.8267 13.3333 13.3333 14.8267 13.3333 16.6667C13.3333 18.5067 14.8267 20 16.6667 20ZM2.66667 7.99999V26.6667C2.66667 28.1333 3.86667 29.3333 5.33334 29.3333H24V26.6667H5.33334V7.99999H2.66667Z" fill="#4979D1"/>
</g>
<defs>
<clipPath id="clip0_5_62">
<rect width="32" height="32" fill="white"/>
</clipPath>
</defs>
</svg>
